<?xml version="1.0" encoding="UTF-8" standalone="no"?>
<svg
   xmlns:dc="http://purl.org/dc/elements/1.1/"
   xmlns:cc="http://creativecommons.org/ns#"
   xmlns:rdf="http://www.w3.org/1999/02/22-rdf-syntax-ns#"
   xmlns:svg="http://www.w3.org/2000/svg"
   xmlns="http://www.w3.org/2000/svg"
   id="svg11"
   version="1.1"
   height="3174"
   width="3175">
  <metadata
     id="metadata15">
    <rdf:RDF>
      <cc:Work
         rdf:about="">
        <dc:format>image/svg+xml</dc:format>
        <dc:type
           rdf:resource="http://purl.org/dc/dcmitype/StillImage" />
      </cc:Work>
    </rdf:RDF>
  </metadata>
  <defs
     id="defs7">
    <linearGradient
       y2="100%"
       y1="0%"
       x2="99.361%"
       x1=".639%"
       id="a">
      <stop
         id="stop2"
         stop-color="#FF8F71"
         offset="0%" />
      <stop
         id="stop4"
         stop-color="#FF3E55"
         offset="100%" />
    </linearGradient>
  </defs>
  <path
     id="path9"
     transform="rotate(22 162.072 2556.164)"
     d="M1973.15 1193.185v788.41h-786.766v-688.41c0-55.228 44.772-100 100-100h686.767zm-1310.445-1.171c217.26 0 393.383 176.124 393.383 393.383v1.645c0 217.26-176.123 393.383-393.383 393.383S269.322 1804.3 269.322 1587.042v-1.645c0-217.26 176.124-393.383 393.383-393.383zm392.212-926.418v688.41c0 55.23-44.771 100-100 100H268.151v-788.41h786.766zm918.234 0v788.41h-686.767c-55.228 0-100-44.771-100-100v-688.41h786.767z"
     fill-rule="evenodd"
     fill="url(#a)" />
</svg>
